# xmcd
#
# Track frame offsets: 
#        150
#        16157
#        39305
#        56506
#        78697
#        92077
#        112988
#        133272
#        158065
#        178888
#        192994
#        206861
#        220840
#        233701
#        247807
#
# Disc length: 3520 seconds
#
# Revision: 2
# Processed by: cddbd v1.5.2PL0 Copyright (c) Steve Scherf et al.
# Submitted via: ExactAudioCopy v0.99pb5
#
DISCID=ca0dbe0f
DTITLE=Eddie C. Campbell - Baddest Cat On The Block (With Bonus Tracks
DTITLE=From Hip Lankchan)
DYEAR=1984
DGENRE=Blues
TTITLE0=Hey Baby
TTITLE1=Nineteen Years Old
TTITLE2=I'm In Love With You Baby
TTITLE3=Tears Are For Losers
TTITLE4=Look At What You Done
TTITLE5=Early In The Morning
TTITLE6=Same Thing
TTITLE7=Cha Cha In Blues
TTITLE8=Cheaper To Keep Her
TTITLE9=Millionaire's Blues
TTITLE10=You Must Be Shampoo Baby
TTITLE11=My Girl
TTITLE12=Confusion Blues
TTITLE13=Little Car Blues
TTITLE14=Bright Light City Jam
EXTD=YEAR: 1984
EXTT0=
EXTT1=
EXTT2=
EXTT3=
EXTT4=
EXTT5=
EXTT6=
EXTT7=
EXTT8=
EXTT9=
EXTT10=
EXTT11=
EXTT12=
EXTT13=
EXTT14=
PLAYORDER=
